<svg xmlns="http://www.w3.org/2000/svg" viewBox="0 0 172 40">
    <path d="M40.9951 15.5459H36.2195C35.8439 15.5459 35.522 15.8074 35.522 16.2041V16.4656C35.522 16.8624 35.8529 17.1239 36.2464 17.1239H40.387C41.3886 17.1239 41.9073 17.71 41.9073 18.6298V19.8922C41.3976 19.6307 40.8789 19.6307 40.8789 19.6307H37.5968C35.5846 19.6307 34.5829 20.884 34.5829 22.417V24.022C34.5829 25.5549 35.5846 26.8083 37.5968 26.8083L40.8789 26.7812C40.8789 26.7812 41.6122 26.7812 42.1935 26.3394L42.2293 26.4025C42.3187 26.5648 42.5334 26.7362 42.748 26.7362H43.0789C43.4277 26.7362 43.6423 26.4566 43.6423 26.15V18.1519C43.6423 16.7993 42.4439 15.5459 40.9951 15.5459ZM41.9073 23.9499C41.9073 24.6081 41.3708 25.1491 40.6911 25.1491H37.5342C36.8545 25.1491 36.3179 24.6081 36.3179 23.9499V22.4891C36.3179 21.8308 36.8545 21.2898 37.5342 21.2898H40.6911C41.3708 21.2898 41.9073 21.8308 41.9073 22.4891V23.9499Z"
          fill="currentColor"/>
    <path d="M50.0008 10.7842H49.6699C49.2764 10.7842 48.9724 11.0908 48.9724 11.4875V26.0231C48.9724 26.4199 49.2764 26.7265 49.6699 26.7265H50.0008C50.3764 26.7265 50.6983 26.4199 50.6983 26.0231V11.4875C50.7073 11.0908 50.3764 10.7842 50.0008 10.7842Z"
          fill="currentColor"/>
    <path d="M18.1545 15.5451H14.0138C14.0138 15.5451 13.209 15.5452 12.6098 16.0591L12.5203 15.8698C12.4309 15.6804 12.2163 15.5361 12.0016 15.5361H11.6529C11.4203 15.5361 11.1163 15.7525 11.1163 16.1042V26.014C11.1163 26.4108 11.4203 26.7174 11.8138 26.7174H12.1447C12.5203 26.7174 12.8423 26.4108 12.8423 26.014V18.629C12.8423 17.7093 13.4236 17.1231 14.3358 17.1231H18.1545C18.548 17.1231 18.852 16.8617 18.852 16.4649V16.2034C18.861 15.8066 18.5569 15.5451 18.1545 15.5451Z"
          fill="currentColor"/>
    <path d="M68.0659 15.5903L67.6724 15.5001C67.3236 15.41 67.0195 15.5272 66.9033 16.0682L65.4545 22.6237C65.1952 23.7779 65.0073 25.2206 65.0073 25.2206H64.9626C64.9626 25.2206 64.7748 24.3009 64.426 23.1918L63.2813 19.6751C63.0935 19.1341 62.7 18.9176 62.3691 18.9176H61.5732C61.2423 18.9176 60.8488 19.1341 60.661 19.6751L59.5163 23.1918C59.1675 24.3009 58.9797 25.2206 58.9797 25.2206H58.935C58.935 25.2206 58.7472 23.7779 58.4878 22.6237L57.039 16.0682C56.9228 15.5272 56.6187 15.41 56.2699 15.5001L55.8764 15.5903C55.4561 15.6805 55.2951 16.0412 55.3846 16.4199L57.5577 25.7616C57.674 26.2305 58.1212 26.7265 58.6309 26.7265H59.2122C59.6594 26.7265 60.0529 26.3748 60.2407 25.8067L61.9756 20.4055L63.7106 25.8067C63.8984 26.3748 64.2919 26.7265 64.7391 26.7265H65.3204C65.8391 26.7265 66.2773 26.2305 66.3935 25.7616L68.5667 16.4199C68.6472 16.0412 68.4862 15.6895 68.0659 15.5903Z"
          fill="currentColor"/>
    <path d="M28.126 15.5459H24.4504C23.0016 15.5459 21.7585 16.7001 21.7585 18.1428V24.04C21.7585 25.5008 22.948 26.7271 24.3073 26.7271H28.2423C28.6358 26.7271 28.9398 26.4656 28.9398 26.0689V25.8074C28.9398 25.4106 28.6358 25.1491 28.2423 25.1491H25.0138C23.9854 25.1491 23.4935 24.5811 23.4935 23.7064V21.8399H29.4585C30.1829 21.8399 30.8179 21.4431 30.8179 20.4242V18.1338C30.8179 16.7001 29.5748 15.5459 28.126 15.5459ZM29.0829 20.3791H23.4935V18.3953C23.4935 17.6649 24.0748 17.1239 24.7545 17.1239H27.822C28.5016 17.1239 29.0829 17.6649 29.0829 18.3953V20.3791Z"
          fill="currentColor"/>
    <path d="M162.773 15.5459H159.098C157.649 15.5459 156.406 16.7001 156.406 18.1428V24.04C156.406 25.5008 157.595 26.7271 158.954 26.7271H162.889C163.283 26.7271 163.587 26.4656 163.587 26.0689V25.8074C163.587 25.4106 163.283 25.1491 162.889 25.1491H159.661C158.633 25.1491 158.141 24.5811 158.141 23.7064V21.8399H164.106C164.83 21.8399 165.465 21.4431 165.465 20.4242V18.1338C165.465 16.7001 164.222 15.5459 162.773 15.5459ZM163.73 20.3791H158.141V18.3953C158.141 17.6649 158.722 17.1239 159.402 17.1239H162.469C163.149 17.1239 163.73 17.6649 163.73 18.3953V20.3791Z"
          fill="currentColor"/>
    <path d="M113.13 10.7842H112.799C112.424 10.7842 112.102 11.0908 112.102 11.4875V15.7346C111.583 15.4551 111.046 15.4551 111.046 15.4551L107.8 15.4821C105.976 15.4821 104.786 16.5461 104.786 18.2684V24.0213C104.786 25.7436 105.976 26.8076 107.8 26.8076L111.046 26.7806C111.046 26.7806 111.798 26.7806 112.388 26.3117L112.433 26.4018C112.522 26.5642 112.737 26.7355 112.951 26.7355H113.3C113.649 26.7355 113.837 26.4559 113.837 26.1494V11.4875C113.828 11.0908 113.524 10.7842 113.13 10.7842ZM112.102 23.7328C112.102 24.5083 111.467 25.1485 110.698 25.1485H107.916C107.147 25.1485 106.512 24.5083 106.512 23.7328V18.5389C106.512 17.7634 107.147 17.1232 107.916 17.1232H110.698C111.467 17.1232 112.102 17.7634 112.102 18.5389V23.7328Z"
          fill="currentColor"/>
    <path d="M148.661 15.4736H148.536H145.459C145.459 15.4736 144.672 15.4736 144.082 15.9696L144.028 15.8704C143.957 15.7261 143.814 15.5368 143.492 15.5368H143.161C142.857 15.5368 142.624 15.7712 142.624 16.1229V26.0056C142.624 26.4024 142.928 26.709 143.322 26.709H143.653C144.028 26.709 144.35 26.4024 144.35 26.0056V18.5304C144.35 17.755 144.985 17.1148 145.754 17.1148H148.536C149.305 17.1148 149.94 17.755 149.94 18.5304V26.0056C149.94 26.4024 150.244 26.709 150.637 26.709H150.968C151.344 26.709 151.666 26.4024 151.666 26.0056V18.2419C151.684 16.5377 150.485 15.4736 148.661 15.4736Z"
          fill="currentColor"/>
    <path d="M98.7407 10.7842H98.4098C98.0163 10.7842 97.7122 11.0908 97.7122 11.4875V26.0231C97.7122 26.4199 98.0163 26.7265 98.4098 26.7265H98.7407C99.1163 26.7265 99.4382 26.4199 99.4382 26.0231V11.4875C99.4382 11.0908 99.1163 10.7842 98.7407 10.7842Z"
          fill="currentColor"/>
    <path d="M78.9227 15.5459H75.2918C73.8431 15.5459 72.6 16.7001 72.6 18.1428V24.0851C72.6 25.5279 73.7447 26.7271 75.1935 26.7271H79.0032C80.4341 26.7271 81.5967 25.5279 81.5967 24.0851V18.1428C81.6146 16.7001 80.3715 15.5459 78.9227 15.5459ZM79.8796 23.8507C79.8796 24.5811 79.2983 25.1491 78.5918 25.1491H75.5959C74.8983 25.1491 74.3349 24.5811 74.3349 23.8507V18.4224C74.3349 17.719 74.8983 17.1239 75.6227 17.1239H78.5918C79.2894 17.1239 79.8796 17.71 79.8796 18.4224V23.8507Z"
          fill="currentColor"/>
    <path d="M93.5 15.5454L89.4219 15.5273C89.4219 15.5273 88.5723 15.5273 87.9731 16.0864L87.8569 15.879C87.7674 15.6897 87.5528 15.5454 87.3381 15.5454H86.9894C86.7568 15.5454 86.4528 15.7618 86.4528 16.1135V26.0233C86.4528 26.42 86.7568 26.7266 87.1503 26.7266H87.4812C87.8569 26.7266 88.1788 26.42 88.1788 26.0233V18.6383C88.1788 17.7185 88.7601 17.1324 89.6723 17.1324H93.4822C93.8757 17.1324 94.1797 16.8709 94.1797 16.4741V16.2126C94.1976 15.8069 93.8935 15.5454 93.5 15.5454Z"
          fill="currentColor"/>
    <path d="M135.318 15.5459V17.2051C135.81 17.3854 136.168 17.8723 136.168 18.4224V23.8507C136.168 24.5811 135.586 25.1491 134.88 25.1491H131.884C131.186 25.1491 130.623 24.5811 130.623 23.8507V20.361H128.888V24.0851C128.888 25.5279 130.033 26.7271 131.481 26.7271H135.291C136.722 26.7271 137.885 25.5279 137.885 24.0851V18.1428C137.903 16.7362 136.722 15.609 135.318 15.5459Z"
          fill="currentColor"/>
    <path d="M123.379 8.68385C122.833 10.2979 122.842 11.2447 122.842 11.2447C122.842 11.2447 123.155 11.4251 123.361 11.5603C123.549 11.6775 123.835 11.903 123.835 11.903C123.835 11.903 123.513 11.9571 123.245 12.0472C122.994 12.1284 122.798 12.1915 122.798 12.1915C122.798 12.1915 122.717 13.6162 123.057 14.9327C123.397 16.2312 123.808 17.0337 123.808 17.0337C123.808 17.0337 124.604 17.0517 125.266 16.9435C125.892 16.8444 126.536 16.6189 126.536 16.6189C126.536 16.6189 126.634 17.205 126.947 17.8453C127.287 18.5666 127.681 19.1527 127.681 19.1527C127.681 19.1527 128.763 18.9904 129.97 18.5576C131.258 18.0977 132.304 17.3673 132.304 17.3673C132.304 17.3673 132.233 17.0878 132.161 16.8353C132.081 16.5648 131.946 16.2763 131.946 16.2763C131.946 16.2763 132.233 16.3755 132.429 16.4566C132.724 16.5738 133.073 16.7632 133.073 16.7632C133.073 16.7632 133.833 16.2132 134.88 14.8335C135.819 13.5982 136.257 12.3268 136.257 12.3268C136.257 12.3268 134.638 11.1545 132.349 11.1726C130.48 11.1816 128.995 11.9841 128.995 11.9841C128.995 11.9841 128.87 10.325 127.779 8.68385C126.455 6.68204 124.729 6.08691 124.729 6.08691C124.729 6.08691 123.951 6.98863 123.379 8.68385Z"
          fill="url(#paint0_linear_1474_63590)"/>
    <defs>
        <linearGradient gradientUnits="userSpaceOnUse" id="paint0_linear_1474_63590" x1="122.791" x2="136.252"
                        y1="12.6316" y2="12.6316">
            <stop stop-color="#64AFE2"/>
            <stop offset="1" stop-color="#1B5197"/>
        </linearGradient>
    </defs>
</svg>
